<svg xmlns="http://www.w3.org/2000/svg" width="123" height="123" viewBox="0 0 123 123">
  <g id="Group_33" data-name="Group 33" transform="translate(-77 -92)">
    <g id="Ellipse_10" data-name="Ellipse 10" transform="translate(77 92)" fill="#f0f2f7" stroke="#e3e8f0" stroke-width="1">
      <circle cx="61.5" cy="61.5" r="61.5" stroke="none"/>
      <circle cx="61.5" cy="61.5" r="61" fill="none"/>
    </g>
    <circle id="Ellipse_11" data-name="Ellipse 11" cx="52" cy="52" r="52" transform="translate(87 102)" fill="#fff"/>
    <path id="Path_31" data-name="Path 31" d="M28.259,16.312a6.025,6.025,0,0,1,4.96-1.21,4.2,4.2,0,0,0,3.327-.423c.847-.484,1.693-.847,2.48-1.331A9.154,9.154,0,0,0,42.532,9.3a6.117,6.117,0,0,0-.665-6.472A7.542,7.542,0,0,0,37.452-.2H35.4c-.3.121-.6.181-.907.3a11.223,11.223,0,0,0-8.1,11.189A10.647,10.647,0,0,0,28.259,16.312Z" transform="translate(106.583 146.617)" fill="#ccc"/>
    <path id="Path_32" data-name="Path 32" d="M57.22,28.664C53.53,25.1,48.51,25.4,44.7,27.939c.121.181.181.3.3.484a5.621,5.621,0,0,1,.786,4.778,3.384,3.384,0,0,0,.363,2.782c.242.484.484,1.028.786,1.573a9.563,9.563,0,0,0,3.871,4.173,6.523,6.523,0,0,0,8.286-.968,9.108,9.108,0,0,0,2.117-3.508V35.075A13.17,13.17,0,0,0,57.22,28.664Z" transform="translate(99.335 136.26)" fill="#ccc"/>
    <path id="Path_33" data-name="Path 33" d="M16.572,32.474a5.986,5.986,0,0,1-1.149-5.262,3.559,3.559,0,0,0-.363-2.843c-.423-.786-.786-1.633-1.27-2.419a8.989,8.989,0,0,0-4.113-3.689,6.183,6.183,0,0,0-6.653.665A8.125,8.125,0,0,0,0,23.341V25.4a12.764,12.764,0,0,0,2.419,4.778c2.6,3.085,5.746,4.9,9.919,4.052A13.651,13.651,0,0,0,16.572,32.474Z" transform="translate(117 139.587)" fill="#ccc"/>
    <path id="Path_34" data-name="Path 34" d="M27.586,45.489a3.559,3.559,0,0,0-2.843.363c-.423.242-.907.423-1.391.665a10.03,10.03,0,0,0-4.839,4.9c-2.3,4.96,2.6,9.677,6.169,9.5a10.018,10.018,0,0,0,5.746-2.419C35.57,54.38,35.812,49.3,32.848,44.4A6.354,6.354,0,0,1,27.586,45.489Z" transform="translate(109.917 128.992)" fill="#ccc"/>
    <path id="Path_35" data-name="Path 35" d="M30,33.229A3.629,3.629,0,1,0,33.568,29.6,3.71,3.71,0,0,0,30,33.229Z" transform="translate(105.145 134.84)" fill="#ccc"/>
    <text id="AC_OFF" data-name="AC OFF" transform="translate(138 132)" fill="#707070" font-size="10" font-family="Montserrat-Light, Montserrat" font-weight="300" letter-spacing="0.1em"><tspan x="-21.34" y="0">AC OFF</tspan></text>
  </g>
</svg>
