<svg xmlns="http://www.w3.org/2000/svg" width="100" height="13.1" viewBox="0 0 100 13.1">
  <g id="Group_32" data-name="Group 32" transform="translate(-650 -26)">
    <g id="logo" transform="translate(650 26.1)">
      <path id="Path_11" data-name="Path 11" d="M0,0A3.777,3.777,0,0,0,2.6,2.6H6.7l.2.1V13H9.4V2.7l.2-.1h4.1A3.769,3.769,0,0,0,16.3,0H0Z" fill="#fff"/>
      <path id="Path_12" data-name="Path 12" d="M77.8,13A3.372,3.372,0,0,0,80,10.4H68.7V-.1H66.2v13H77.8Z" fill="#fff"/>
      <path id="Path_13" data-name="Path 13" d="M47.3,2.6h9A3.741,3.741,0,0,0,59,0H44.8V7.7H56.4v2.7H47.3A5.244,5.244,0,0,0,44.1,13H59V5.2H47.3Z" fill="#fff"/>
      <path id="Path_14" data-name="Path 14" d="M85.4,5.2V13H88V7.8h9.1V13h2.6V5.2Z" fill="#fff"/>
      <path id="Path_15" data-name="Path 15" d="M25.2,2.6h9.7A3.6,3.6,0,0,0,37.5,0h-15a3.919,3.919,0,0,0,2.7,2.6" fill="#fff"/>
      <path id="Path_16" data-name="Path 16" d="M25.2,7.8h9.7a3.6,3.6,0,0,0,2.6-2.6h-15a4.125,4.125,0,0,0,2.7,2.6" fill="#fff"/>
      <path id="Path_17" data-name="Path 17" d="M25.2,13h9.7a3.6,3.6,0,0,0,2.6-2.6h-15A3.735,3.735,0,0,0,25.2,13" fill="#fff"/>
      <path id="Path_18" data-name="Path 18" d="M87.7,2.6h9.7A3.6,3.6,0,0,0,100,0H85a3.434,3.434,0,0,0,2.7,2.6" fill="#fff"/>
    </g>
  </g>
</svg>
